<svg xmlns="http://www.w3.org/2000/svg" viewBox="0 0 777.71 298.34"><defs><style>.cls-1,.cls-2{fill:#b4d77c;}.cls-2{font-size:171px;font-family:GillSans-UltraBoldCondensed, Gill Sans Ultra Bold Condensed;font-weight:700;}</style></defs><g id="Layer_2" data-name="Layer 2"><g id="Layer_1-2" data-name="Layer 1"><path class="cls-1" d="M506.84,64.35c-5.62-2.94-14.88-3.29-20.7-3.17a2,2,0,0,1,.17-1c13.5-3.33,17.75.79,17.75.79s7.58,4.46.32-.51c-5-3.41-12.92-2.15-17.43-1a4,4,0,0,1,.93-.47c0-.37-.05-.74-.07-1.11a2,2,0,0,1-.07-.58c.5-2.21,2.52-4.08,1.49-6.66-.09-.22.37-.67.57-1a12.49,12.49,0,0,0,1.35-8.92c-.47-2.5-2.08-4.76-1.56-7.49a.92.92,0,0,0-.31-.79c-1.15-.71-.7-1.74-.59-2.68.72-6.52,1.5-13.06.45-19.59-.4-2.5-.51-5.11-1.77-7.46-1.6-3-2.95-3.42-5.74-1.74a4.24,4.24,0,0,0-1.22.83,37.89,37.89,0,0,1-7.8,7.1c-2,1.52-3.42,3.83-4.78,6-1.69,2.79-4.17,3.7-7.39,3.12s-6.46-2.15-9.89-.78a1.76,1.76,0,0,1-.88,0c-4.6-.54-9.14.1-13.65.78a3,3,0,0,1-3.62-1.72,20.07,20.07,0,0,0-6.5-6.87,12.62,12.62,0,0,1-1.83-1.52c-2-2.13-4.67-2.92-7.46-3.3a11.46,11.46,0,0,1-2.62-.5c-1.17-.47-1.64-.36-1.89,1.13-.46,2.8,0,5.49.1,8.22.08,3.58.34,7.13.66,10.68a88,88,0,0,0,1.48,11.13,11.84,11.84,0,0,1,.11,5.82c-.51,1.84-1,3.67.34,5.42a1.83,1.83,0,0,1,0,1.72,5.44,5.44,0,0,0,0,2.57c.23,2,1,3.75,1.31,5.65l.28,1v0c-4.18-1.17-13.13-3-18.55.72-7.27,5,.32.51.32.51s4.52-4.38,19-.45a2.65,2.65,0,0,1,.8.68c-5.48-.22-16.32-.17-22.61,3.12-8.67,4.54.43.32.43.32s5-3.54,22.34-3a1.2,1.2,0,0,1,0,.28,3.18,3.18,0,0,0,1.62,2.67,1,1,0,0,1,.39,1.28l.94,3-.09,2c.36,1-.18,2,0,2.94a20.29,20.29,0,0,0,.33,4.15,3.92,3.92,0,0,1-1.62,4.64,10.12,10.12,0,0,0-4.05,7.67,5.83,5.83,0,0,1-1.33,3.56,9.74,9.74,0,0,0-1.61,2.84,4,4,0,0,1-1.55,2.13c-1.43.81-2.25,2.21-3.38,3.3-2.51,2.41-4.56,5.23-7.08,7.62-1.44,1.37-3,2.56-3.08,4.86,0,1-.94,1.71-1.66,2.4a44.48,44.48,0,0,1-3.48,3.26c-5.12,3.92-7.59,9.87-11.43,14.77-.41.52-.47,1.32-.84,1.89-1.2,1.83-1.29,4.18-2.72,5.87a20.14,20.14,0,0,0-4.25,9.07,82.67,82.67,0,0,1-5.56,17.56c-4,8.81-4.62,18-3.71,27.41.3,3.14,1,6.22,1.46,9.39a4.41,4.41,0,0,1-.8-.09c-6.59-2-11.59-6.42-16.24-11.23-5.44-5.63-9.41-12.3-12.72-19.34a32.4,32.4,0,0,1-3.26-17.93,56.65,56.65,0,0,1,3.79-14c2.88-7.4,6-14.71,8.64-22.2,3.75-10.67,4.89-21.45,1.45-32.44A18.43,18.43,0,0,0,335.4,74.75a13.51,13.51,0,0,0-9.36-.19c-2.88.86-3.54,2.6-2.19,5.24a12.4,12.4,0,0,0,3.08,4c1.15,1,2.24,2,3.3,3a17.84,17.84,0,0,1,5.56,14.52,41.44,41.44,0,0,1-1.76,9c-2.52,8.58-6,16.82-8.84,25.29a66.76,66.76,0,0,0-3.76,19.81c-.23,11.2,2.87,21.61,8.05,31.42,5,9.41,12,17.26,19.48,24.72,9.78,9.74,21,17,34.64,19.91A4.24,4.24,0,0,1,385,232c2.07,1.36,4.44,2.18,6.5,3.59a10.87,10.87,0,0,0,5.93,1.79c6.27.13,12.49.89,18.72,1.43,4.46.39,8.95.21,13.39.91,1.64.26,3.5.48,5-.26,2.12-1.06,4.26-.71,6.41-.78a4,4,0,0,1,3,1.08c1.08,1.17,1.83,2.86,3.71,1,.11-.11.69.24,1.05.4a5,5,0,0,0,4.32-.14,3.58,3.58,0,0,1,2.24-.67c2.2.45,3.47-.82,4.21-2.52.59-1.37,1.28-1.78,2.69-1.44a9.16,9.16,0,0,0,2.67.06,1.78,1.78,0,0,1,1.85,1.19c.3.62.43,1.33.77,1.92,1.09,1.95,1.86,2.11,3.65.63.54-.46,1-.77,1.48-.26,1.47,1.52,2.85.88,4.24-.08a1.86,1.86,0,0,1,1.36-.32c2.36.28,4.21-.76,4.75-3.19s1.68-4.95,1.53-7.57a15.08,15.08,0,0,1,3-9.75c2.45-3.52,3.08-7.51,2.88-11.64a18.67,18.67,0,0,1,.2-4.43,44.36,44.36,0,0,0,.61-13.65,31.09,31.09,0,0,1,0-7.15,94.45,94.45,0,0,0,.34-16.39c-.26-4.36-.89-8.69-1.19-13.05a72.68,72.68,0,0,1,0-8.35c.12-2.74,1.05-5.5-.52-8.14-.1-.18.17-.56.2-.85a28.24,28.24,0,0,0,.28-4.58c-.33-3.89-.81-7.77.3-11.63a5.27,5.27,0,0,0-.37-3.5,7.24,7.24,0,0,1-.43-4.39c.82-3.83.53-7.72.76-11.59a14.3,14.3,0,0,0-.66-5.58,15.48,15.48,0,0,1-.95-5.26,31.77,31.77,0,0,0-4.19-16.44A8.22,8.22,0,0,1,483.15,68c.06-1.1.28-2,1.75-1.59-.12-.56-.35-1.15.36-1.52l.12-.13c10-.84,12.7,2.37,12.7,2.37s5.27,3.9.29-.33c-3.35-2.85-9.26-2.8-12.77-2.47a2.76,2.76,0,0,1,1-.63A9.23,9.23,0,0,0,486.3,62a3.48,3.48,0,0,1-.1-.41c15.59-.18,20.2,3.07,20.2,3.07S515.5,68.88,506.84,64.35Z"/><path class="cls-1" d="M418.41,62.6l1.09-.2s-10.65-2.15-15.63,2.08.28.33.28.33S407.14,61.26,418.41,62.6Z"/><text class="cls-2" transform="translate(0 233.63)">REC</text><text class="cls-2" transform="translate(497.58 235.55)">LOG</text></g></g></svg>